<svg xmlns="http://www.w3.org/2000/svg" xmlns:xlink="http://www.w3.org/1999/xlink" viewBox="0,0,256,256" width="100px" height="100px" fill-rule="nonzero"><g fill="#fc573b" fill-rule="nonzero" stroke="none" stroke-width="1" stroke-linecap="butt" stroke-linejoin="miter" stroke-miterlimit="10" stroke-dasharray="" stroke-dashoffset="0" font-family="none" font-weight="none" font-size="none" text-anchor="none" style="mix-blend-mode: normal"><g transform="scale(2.56,2.56)"><path d="M27.751,75c1.017,-0.56 1.965,-1.24 2.832,-2h42.208c-4.067,-2.453 -6.788,-6.907 -6.788,-12v-22.173l-8,-8v7.173h4.341l1.659,1.653v0.347h-7c-0.552,0 -1,-0.453 -1,-1v-4h-0.001v-5h-21.999v31c0,7.733 -6.272,14 -14.001,14h-20l0.001,-4h20c5.519,0 10,-4.48 10,-10v-33c0,-1.107 0.895,-2 1.999,-2h26c0.531,0 1.04,0.213 1.415,0.587l10,10c0.375,0.373 0.587,0.88 0.587,1.413v23c0,5.52 4.48,10 9.999,10h20l0.001,4z"></path></g></g></svg>